[center][img]http://img846.imageshack.us/img846/4038/hgqqi2vq.jpg[/img]



[img]http://leetleech.org/images/48874973695367351744.png[/img]


Format                           : AVI
Format/Info                      : Audio Video Interleave
Format profile                   : OpenDML
File size                        : 1.75 GiB
Duration                         : 2h 0mn
Overall bit rate                 : 2 069 Kbps
Writing library                  : MPlayer

Video
ID                               : 0
Format                           : MPEG-4 Visual
Format profile                   : Advanced Simple@L5
Format settings, BVOP            : Yes
Format settings, QPel            : No
Format settings, GMC             : No warppoints
Format settings, Matrix          : Default (H.263)
Codec ID                         : XVID
Codec ID/Hint                    : XviD
Duration                         : 2h 0mn
Bit rate                         : 1 680 Kbps
Width                            : 720 pixels
Height                           : 304 pixels
Display aspect ratio             : 2.35:1
Frame rate                       : 23.976 fps
Color space                      : YUV
Chroma subsampling               : 4:2:0
Bit depth                        : 8 bits
Scan type                        : Progressive
Bits/(Pixel*Frame)               : 0.320
Stream size                      : 1.42 GiB (81%)
Writing library                  : XviD 1.2.1 (UTC 2008-12-04)

Audio
ID                               : 1
Format                           : AC-3
Format/Info                      : Audio Coding 3
Mode extension                   : CM (complete main)
Codec ID                         : 2000
Duration                         : 2h 0mn
Bit rate mode                    : Constant
Bit rate                         : 384 Kbps
Channel(s)                       : 6 channels
Channel positions                : Front: L C R, Side: L R, LFE
Sampling rate                    : 48.0 KHz
Bit depth                        : 16 bits
Stream size                      : 332 MiB (19%)
Alignment                        : Split accross interleaves
Interleave, duration             : 500 ms (11.99 video frames)
Interleave, preload duration     : 500 ms




[url]http://www.imdb.com/title/tt1104001/[/url]




[IMG]http://leetleech.org/images/89524873606771859129.png[/IMG]


Storyline

Sam Flynn, the tech-savvy 27-year-old son of Kevin Flynn, looks into his father's disappearance and finds himself pulled into the same world of fierce programs and gladiatorial games where his father has been living for 20 years. Along with Kevin's loyal confidant, father and son embark on a life-and-death journey across a visually-stunning cyber universe that has become far more advanced and exceedingly dangerous.

Users: 7.3/10 (40,351 votes) 473 reviews | Critics: 324 reviews Metascore: 49/100 (based on 40 reviews from Metacritic.com)

Director:
Joseph Kosinski
Writers:
Edward Kitsis (screenplay), Adam Horowitz (screenplay), and 6 more credits »
Stars:
Jeff Bridges, Garrett Hedlund and Olivia Wilde 



[img]http://leetleech.org/images/95521316153253938506.png[/img]




[img]http://img18.imageshack.us/img18/9877/vlcsnap2011030211h22m45.png[/img]

[img]http://img200.imageshack.us/img200/683/vlcsnap2011030211h22m25.png[/img]

[img]http://img689.imageshack.us/img689/153/vlcsnap2011030211h22m04.png[/img]


Source...............: DVDR.NTSC.R4-AllAN-TeaM   .........Thanks




Greetz to Imagine ,Flawl3ss ,Santi ,Vision ,Kingdom, BDK, TOXiC, iNK, THC, Ez, Rx,





[img]http://img411.imageshack.us/img411/6898/sig1n.jpg[/img]




[/center]